<svg xmlns="http://www.w3.org/2000/svg" width="933.75983" height="774.96591" viewBox="0 0 933.75983 774.96591" xmlns:xlink="http://www.w3.org/1999/xlink" role="img" artist="Katerina Limpitsouni"><g><path d="m385.15117,527.86212c3.04723-.60945,147.4861-67.64858,155.40891-48.75574,3.74133,8.92162-.80742,18.38686-6.65102,25.89282-6.27576,8.06107-14.58326,14.29499-23.92567,18.42845-28.25832,12.50262-111.63117,49.22335-112.64328,47.70518-1.21889-1.82834-12.18893-43.27072-12.18893-43.27072Z" fill="#f5ab82" stroke="#231f20" stroke-miterlimit="10" stroke-width="1.5"/><path d="m410.07415,452.80269c3.04723-.71162,147.4861-78.99024,155.40891-56.9299,3.74133,10.41738-.80742,21.46951-6.65102,30.2339-6.27576,9.41256-14.58326,16.69162-23.92567,21.51808-28.25832,14.59875-111.63117,57.47592-112.64328,55.70322-1.21889-2.13487-12.18893-50.52529-12.18893-50.52529Z" fill="#f5ab82" stroke="#231f20" stroke-miterlimit="10" stroke-width="1.5"/><path d="m397.99385,375.03197c3.04723-.71162,147.4861-78.99024,155.40891-56.9299,3.74133,10.41738-.80742,21.46951-6.65102,30.2339-6.27576,9.41256-14.58326,16.69162-23.92567,21.51808-28.25832,14.59875-111.63117,57.47592-112.64328,55.70322-1.21889-2.13487-12.18893-50.52529-12.18893-50.52529Z" fill="#f5ab82" stroke="#231f20" stroke-miterlimit="10" stroke-width="1.5"/><path d="m1.3521,774.21591l106.9579-171.39184,117.92794-147.09786,120.67045-125.7819,60.33522,238.59839s-19.19757,35.65263-34.28138,35.65263c0,0-85.01782,128.89798-131.64049,124.78421l-27.4251,45.23637H1.3521Z" fill="#f5ab82" stroke="#231f20" stroke-miterlimit="10" stroke-width="1.5"/></g><path d="m548.60866,464.1296c-3.04723-.60945-147.4861-67.64858-155.40891-48.75574-3.74133,8.92162.80742,18.38686,6.65102,25.89282,6.27576,8.06107,14.58326,14.29499,23.92567,18.42845,28.25832,12.50262,111.63117,49.22335,112.64328,47.70518,1.21889-1.82834,12.18893-43.27072,12.18893-43.27072Z" fill="#f5ab82" stroke="#231f20" stroke-miterlimit="10" stroke-width="1.5"/><path d="m523.68568,389.07017c-3.04723-.71162-147.4861-78.99024-155.40891-56.9299-3.74133,10.41738.80742,21.46951,6.65102,30.2339,6.27576,9.41256,14.58326,16.69162,23.92567,21.51808,28.25832,14.59875,111.63117,57.47592,112.64328,55.70322,1.21889-2.13487,12.18893-50.52529,12.18893-50.52529Z" fill="#f5ab82" stroke="#231f20" stroke-miterlimit="10" stroke-width="1.5"/><path d="m535.76598,311.29945c-3.04723-.71162-147.4861-78.99024-155.40891-56.9299-3.74133,10.41738.80742,21.46951,6.65102,30.2339,6.27576,9.41256,14.58326,16.69162,23.92567,21.51808,28.25832,14.59875,111.63117,57.47592,112.64328,55.70322,1.21889-2.13487,12.18893-50.52529,12.18893-50.52529Z" fill="#f5ab82" stroke="#231f20" stroke-miterlimit="10" stroke-width="1.5"/><path d="m932.40773,710.48338l-106.9579-171.39184-117.92794-147.09786-120.67045-125.7819-60.33522,238.59839s19.19757,35.65263,34.28138,35.65263c0,0,85.01782,128.89798,131.64049,124.78421l27.4251,45.23637h212.54454Z" fill="#f5ab82" stroke="#231f20" stroke-miterlimit="10" stroke-width="1.5"/><path d="m594.62829,627.61957h-211.66061c-26.51089,0-48.07928-21.56838-48.07928-48.07928V48.82928c0-26.51089,21.56838-48.07928,48.07928-48.07928h211.66061c26.51089,0,48.07928,21.56838,48.07928,48.07928v530.71102c0,26.51089-21.56838,48.07928-48.07928,48.07928Z" fill="#fff" stroke="#231f20" stroke-miterlimit="10" stroke-width="1.5"/><rect x="432.39155" y="33.09772" width="115.72428" height="23.94295" rx="11.97147" ry="11.97147" fill="#fff" stroke="#231f20" stroke-miterlimit="10" stroke-width="1.5"/><line x1="360.56523" y1="332.95492" x2="619.94214" y2="332.95492" fill="none" stroke="#231f20" stroke-miterlimit="10" stroke-width="1.5"/><path d="m256.55791,467.5269h51.80297s138.3444-79.22807,155.40891-56.0691c5.33266,7.23718,7.03482,15.42662,6.85479,23.2664-.39615,17.25047-10.13332,32.93642-25.07159,41.5726l-101.8442,58.87868s21.33063,106.04373-76.79029,130.4216" fill="#f5ab82" stroke="#231f20" stroke-miterlimit="10" stroke-width="1.5"/><path d="m677.20192,403.79437h-51.80297s-138.3444-79.22807-155.40891-56.0691c-5.33266,7.23718-7.03482,15.42662-6.85479,23.2664.39615,17.25047,10.13332,32.93642,25.07159,41.5726l101.8442,58.87868s-21.33063,106.04373,76.79029,130.4216" fill="#f5ab82" stroke="#231f20" stroke-miterlimit="10" stroke-width="1.5"/><g><rect x="421.60319" y="239.90855" width="36.18803" height="93.04637" rx="4" ry="4" fill="#6c63ff" stroke="#231f20" stroke-miterlimit="10" stroke-width="1.5"/><rect x="472.15967" y="198.84507" width="36.18803" height="134.10985" rx="4" ry="4" fill="#6c63ff" stroke="#231f20" stroke-miterlimit="10" stroke-width="1.5"/><rect x="522.71616" y="129.30211" width="36.18803" height="203.6528" rx="4" ry="4" fill="#6c63ff" stroke="#231f20" stroke-miterlimit="10" stroke-width="1.5"/></g></svg>